<?xml version="1.0" standalone="no"?>
<!DOCTYPE svg PUBLIC "-//W3C//DTD SVG 20010904//EN"
 "http://www.w3.org/TR/2001/REC-SVG-20010904/DTD/svg10.dtd">
<svg version="1.0" xmlns="http://www.w3.org/2000/svg"
 width="614.000000pt" height="614.000000pt" viewBox="0 0 614.000000 614.000000"
 preserveAspectRatio="xMidYMid meet">
<metadata>
Created by potrace 1.14, written by Peter Selinger 2001-2017
</metadata>
<g transform="translate(0.000000,614.000000) scale(0.100000,-0.100000)"
fill="#000000" stroke="none">
<path d="M2520 4775 c0 -3 42 -53 93 -111 l92 -106 105 7 c71 5 102 4 95 -3
-10 -10 -959 -551 -975 -555 -4 -1 -138 117 -297 263 l-289 265 334 3 c183 1
332 6 330 10 -2 4 -51 53 -109 110 l-106 102 -627 0 c-345 0 -626 -4 -624 -8
2 -4 37 -54 78 -110 l74 -102 158 0 c120 0 158 -3 158 -12 0 -7 -133 -508
-295 -1112 -162 -605 -294 -1100 -292 -1102 1 -1 71 -3 156 -5 l154 -4 255
955 c141 525 257 957 259 960 2 2 104 -96 226 -218 l222 -222 165 0 165 0 394
215 c217 119 396 214 398 211 4 -3 -473 -1826 -492 -1884 -4 -10 31 -12 162
-10 l166 3 302 1128 c166 620 304 1129 306 1131 2 2 108 0 234 -4 127 -4 231
-7 233 -5 7 6 -174 198 -195 206 -25 9 -1013 13 -1013 4z"/>
<path d="M3422 4318 l96 -103 271 -3 c230 -2 271 -5 271 -17 0 -8 -115 -443
-255 -966 -140 -524 -255 -954 -255 -956 0 -1 87 -3 193 -3 128 -1 214 -5 257
-15 140 -31 318 -16 466 40 234 88 525 344 698 614 144 225 237 492 240 686 1
112 -15 177 -60 246 -20 29 -46 78 -58 108 -60 149 -129 213 -264 245 -51 13
5 14 521 15 l579 1 -98 105 -97 105 -1300 0 -1300 0 95 -102z m1259 -283 c184
-37 325 -146 404 -311 77 -161 70 -278 -36 -604 -62 -191 -102 -264 -194 -355
-80 -80 -144 -120 -269 -171 -259 -106 -481 -118 -588 -33 -16 13 -4 65 176
734 106 396 196 731 201 744 l7 24 117 -7 c64 -4 146 -13 182 -21z"/>
<path d="M10 1615 l0 -175 2740 0 2740 0 0 175 0 175 -2740 0 -2740 0 0 -175z"/>
</g>
</svg>
